<?xml version="1.0" standalone="no"?>
<!DOCTYPE svg PUBLIC "-//W3C//DTD SVG 20010904//EN"
 "http://www.w3.org/TR/2001/REC-SVG-20010904/DTD/svg10.dtd">
<svg version="1.0" xmlns="http://www.w3.org/2000/svg"
 width="212.000000pt" height="212.000000pt" viewBox="0 0 212.000000 212.000000"
 preserveAspectRatio="xMidYMid meet">
<metadata>
Created by potrace 1.11, written by Peter Selinger 2001-2013
</metadata>
<g transform="translate(0.000000,212.000000) scale(0.100000,-0.100000)"
fill="#000000" stroke="none">
<path d="M1090 1830 c-10 -19 2 -34 133 -166 l145 -145 146 147 c141 142 146
147 129 166 -17 18 -21 15 -146 -111 l-130 -130 -116 117 c-151 152 -147 149
-161 122z"/>
<path d="M587 1810 c-10 -4 -12 -120 -13 -515 0 -388 -3 -518 -12 -541 -27
-64 -128 -87 -207 -46 -22 11 -63 43 -91 71 -40 39 -54 48 -62 38 -6 -7 -54
-89 -107 -182 l-95 -169 37 -39 c60 -62 183 -127 263 -141 19 -3 46 -8 60 -11
34 -7 166 -7 215 0 112 17 230 74 304 147 28 28 51 55 51 60 0 6 7 5 16 -3 14
-11 34 5 152 124 l136 137 -104 105 -105 105 0 117 0 117 102 100 c57 56 103
106 103 112 0 6 -46 57 -102 113 l-102 101 -1 100 c0 100 0 100 -25 100 -14 0
-110 1 -213 3 -103 1 -193 0 -200 -3z m573 -412 c0 -8 -121 -128 -130 -128 -3
0 -5 61 -5 135 l0 135 67 -67 c38 -37 68 -71 68 -75z m-20 -680 c-11 -13 -54
-57 -96 -98 -71 -69 -75 -72 -61 -38 21 51 37 133 41 214 2 38 4 71 5 73 0 3
30 -25 66 -62 l66 -66 -21 -23z"/>
<path d="M1624 1552 c-66 -65 -125 -126 -132 -134 -10 -13 3 -31 90 -117 56
-55 105 -101 108 -101 3 0 65 60 138 133 128 129 132 134 114 150 -19 17 -24
13 -136 -100 l-117 -117 -69 69 -70 70 117 117 c100 101 115 119 104 132 -8 9
-17 16 -21 16 -4 0 -61 -53 -126 -118z"/>
<path d="M1930 1215 l-144 -144 147 -147 c123 -122 150 -144 162 -134 8 7 15
16 15 21 0 5 -57 66 -126 136 l-126 126 130 131 c109 109 128 133 117 144 -8
6 -18 12 -22 12 -5 0 -73 -65 -153 -145z"/>
<path d="M1264 1192 c-135 -133 -134 -107 -14 -227 l103 -104 104 102 c56 56
103 105 103 109 0 6 -198 208 -204 208 -2 0 -43 -39 -92 -88z m164 -186 c-37
-36 -70 -66 -75 -66 -4 0 -37 30 -72 66 l-63 66 68 69 69 69 69 -69 70 -70
-66 -65z"/>
<path d="M1572 837 l-102 -102 131 -133 c72 -72 135 -132 141 -132 5 0 15 6
23 13 11 12 -5 32 -101 128 -63 62 -114 118 -114 124 0 5 30 39 66 74 l66 64
118 -120 c115 -116 119 -119 135 -100 16 19 12 25 -116 153 -74 74 -136 134
-139 134 -3 0 -51 -46 -108 -103z"/>
<path d="M1221 450 c-74 -75 -136 -141 -138 -147 -2 -5 4 -16 12 -23 15 -12
32 1 138 108 67 67 126 125 130 129 4 4 66 -51 138 -122 124 -124 131 -129
145 -110 13 18 6 28 -128 162 -79 79 -147 142 -153 142 -5 -1 -70 -63 -144
-139z"/>
</g>
</svg>
